<mxfile host="Electron" modified="2024-01-30T12:33:23.400Z" agent="Mozilla/5.0 (Windows NT 10.0; Win64; x64) AppleWebKit/537.36 (KHTML, like Gecko) draw.io/23.0.2 Chrome/120.0.6099.109 Electron/28.1.0 Safari/537.36" etag="qsc_picYnnfaDgt0Ieop" version="23.0.2" type="device">
  <diagram id="C5RBs43oDa-KdzZeNtuy" name="Page-1">
    <mxGraphModel dx="1685" dy="511" grid="1" gridSize="10" guides="1" tooltips="1" connect="1" arrows="1" fold="1" page="1" pageScale="1" pageWidth="827" pageHeight="1169" math="0" shadow="0">
      <root>
        <mxCell id="WIyWlLk6GJQsqaUBKTNV-0" />
        <mxCell id="WIyWlLk6GJQsqaUBKTNV-1" parent="WIyWlLk6GJQsqaUBKTNV-0" />
        <mxCell id="WIyWlLk6GJQsqaUBKTNV-3" value="Control path (The FSM)&lt;br&gt;&lt;font color=&quot;#ff0505&quot;&gt;cp_fsm_1&lt;/font&gt;" style="rounded=1;whiteSpace=wrap;html=1;fontSize=12;glass=0;strokeWidth=1;shadow=0;verticalAlign=bottom;align=center;fontStyle=1;fillColor=#fff2cc;strokeColor=#d6b656;" parent="WIyWlLk6GJQsqaUBKTNV-1" vertex="1">
          <mxGeometry x="40" y="640" width="880" height="110" as="geometry" />
        </mxCell>
        <mxCell id="1hs4knqwZ85UVMhzhQ41-1" value="" style="group" vertex="1" connectable="0" parent="WIyWlLk6GJQsqaUBKTNV-1">
          <mxGeometry x="60" y="304" width="100" height="170" as="geometry" />
        </mxCell>
        <mxCell id="WIyWlLk6GJQsqaUBKTNV-11" value="" style="rounded=1;whiteSpace=wrap;html=1;fontSize=12;glass=0;strokeWidth=1;shadow=0;container=1;fillColor=#f8cecc;strokeColor=#b85450;" parent="1hs4knqwZ85UVMhzhQ41-1" vertex="1">
          <mxGeometry y="40" width="100" height="130" as="geometry" />
        </mxCell>
        <mxCell id="1hs4knqwZ85UVMhzhQ41-13" value="RxD" style="text;html=1;strokeColor=none;fillColor=none;align=left;verticalAlign=middle;whiteSpace=wrap;rounded=0;fontSize=11;fontFamily=Helvetica;fontColor=default;" vertex="1" parent="WIyWlLk6GJQsqaUBKTNV-11">
          <mxGeometry y="15" width="50" height="30" as="geometry" />
        </mxCell>
        <mxCell id="1hs4knqwZ85UVMhzhQ41-0" value="UART Rx&lt;br&gt;&lt;font color=&quot;#ff0505&quot;&gt;dp_uart_rx&lt;/font&gt;" style="text;html=1;strokeColor=none;fillColor=none;align=center;verticalAlign=middle;whiteSpace=wrap;rounded=0;fontSize=11;fontFamily=Helvetica;fontColor=default;fontStyle=1" vertex="1" parent="1hs4knqwZ85UVMhzhQ41-1">
          <mxGeometry x="20" width="60" height="30" as="geometry" />
        </mxCell>
        <mxCell id="1hs4knqwZ85UVMhzhQ41-4" value="mod-m counter&lt;br&gt;&lt;span style=&quot;font-weight: normal;&quot;&gt;Baud-rate generator&lt;br&gt;&lt;/span&gt;&lt;font color=&quot;#ff0505&quot;&gt;dp_mod_m_uart&lt;/font&gt;" style="text;html=1;strokeColor=none;fillColor=none;align=center;verticalAlign=middle;whiteSpace=wrap;rounded=0;fontSize=11;fontFamily=Helvetica;fontColor=default;fontStyle=1" vertex="1" parent="WIyWlLk6GJQsqaUBKTNV-1">
          <mxGeometry x="-80" y="429" width="110" height="45" as="geometry" />
        </mxCell>
        <mxCell id="1hs4knqwZ85UVMhzhQ41-3" value="" style="rounded=1;whiteSpace=wrap;html=1;fontSize=12;glass=0;strokeWidth=1;shadow=0;container=1;fillColor=#d5e8d4;strokeColor=#82b366;" vertex="1" parent="WIyWlLk6GJQsqaUBKTNV-1">
          <mxGeometry x="-60" y="479" width="70" height="70" as="geometry">
            <mxRectangle x="-60" y="550" width="50" height="40" as="alternateBounds" />
          </mxGeometry>
        </mxCell>
        <mxCell id="1hs4knqwZ85UVMhzhQ41-5" style="edgeStyle=orthogonalEdgeStyle;rounded=1;orthogonalLoop=1;jettySize=auto;html=1;exitX=1;exitY=0.5;exitDx=0;exitDy=0;entryX=0;entryY=0.75;entryDx=0;entryDy=0;curved=0;endArrow=block;endFill=1;" edge="1" parent="WIyWlLk6GJQsqaUBKTNV-1">
          <mxGeometry relative="1" as="geometry">
            <mxPoint x="9.5" y="513.5" as="sourcePoint" />
            <mxPoint x="79.5" y="473.5" as="targetPoint" />
          </mxGeometry>
        </mxCell>
        <mxCell id="1hs4knqwZ85UVMhzhQ41-6" value="Tick pulse" style="edgeLabel;html=1;align=center;verticalAlign=middle;resizable=0;points=[];" vertex="1" connectable="0" parent="1hs4knqwZ85UVMhzhQ41-5">
          <mxGeometry x="-0.1263" y="1" relative="1" as="geometry">
            <mxPoint as="offset" />
          </mxGeometry>
        </mxCell>
        <mxCell id="1hs4knqwZ85UVMhzhQ41-7" value="" style="endArrow=classic;html=1;rounded=0;exitX=0.608;exitY=0.997;exitDx=0;exitDy=0;exitPerimeter=0;" edge="1" parent="WIyWlLk6GJQsqaUBKTNV-1" source="WIyWlLk6GJQsqaUBKTNV-11">
          <mxGeometry width="50" height="50" relative="1" as="geometry">
            <mxPoint x="120" y="550" as="sourcePoint" />
            <mxPoint x="120" y="640" as="targetPoint" />
          </mxGeometry>
        </mxCell>
        <mxCell id="1hs4knqwZ85UVMhzhQ41-9" value="1" style="edgeLabel;html=1;align=center;verticalAlign=middle;resizable=0;points=[];" vertex="1" connectable="0" parent="1hs4knqwZ85UVMhzhQ41-7">
          <mxGeometry x="-0.1772" relative="1" as="geometry">
            <mxPoint as="offset" />
          </mxGeometry>
        </mxCell>
        <mxCell id="1hs4knqwZ85UVMhzhQ41-10" value="rx_done" style="text;html=1;strokeColor=none;fillColor=none;align=left;verticalAlign=middle;whiteSpace=wrap;rounded=0;fontSize=11;fontFamily=Helvetica;fontColor=default;" vertex="1" parent="WIyWlLk6GJQsqaUBKTNV-1">
          <mxGeometry x="100" y="640" width="50" height="30" as="geometry" />
        </mxCell>
        <mxCell id="1hs4knqwZ85UVMhzhQ41-11" value="" style="endArrow=classic;html=1;rounded=0;entryX=-0.036;entryY=0.241;entryDx=0;entryDy=0;entryPerimeter=0;" edge="1" parent="WIyWlLk6GJQsqaUBKTNV-1" target="WIyWlLk6GJQsqaUBKTNV-11">
          <mxGeometry width="50" height="50" relative="1" as="geometry">
            <mxPoint x="-40" y="375" as="sourcePoint" />
            <mxPoint x="90" y="419" as="targetPoint" />
          </mxGeometry>
        </mxCell>
        <mxCell id="1hs4knqwZ85UVMhzhQ41-12" value="1" style="edgeLabel;html=1;align=center;verticalAlign=middle;resizable=0;points=[];" vertex="1" connectable="0" parent="1hs4knqwZ85UVMhzhQ41-11">
          <mxGeometry x="-0.0455" y="-2" relative="1" as="geometry">
            <mxPoint as="offset" />
          </mxGeometry>
        </mxCell>
        <mxCell id="1hs4knqwZ85UVMhzhQ41-14" value="" style="endArrow=classic;html=1;rounded=0;entryX=-0.001;entryY=0.532;entryDx=0;entryDy=0;entryPerimeter=0;" edge="1" parent="WIyWlLk6GJQsqaUBKTNV-1">
          <mxGeometry width="50" height="50" relative="1" as="geometry">
            <mxPoint x="-39.12" y="680.2" as="sourcePoint" />
            <mxPoint x="39.99999999999989" y="680" as="targetPoint" />
          </mxGeometry>
        </mxCell>
        <mxCell id="1hs4knqwZ85UVMhzhQ41-16" value="1" style="edgeLabel;html=1;align=center;verticalAlign=middle;resizable=0;points=[];" vertex="1" connectable="0" parent="1hs4knqwZ85UVMhzhQ41-14">
          <mxGeometry x="-0.1362" y="2" relative="1" as="geometry">
            <mxPoint as="offset" />
          </mxGeometry>
        </mxCell>
        <mxCell id="1hs4knqwZ85UVMhzhQ41-15" value="Play" style="text;html=1;strokeColor=none;fillColor=none;align=left;verticalAlign=middle;whiteSpace=wrap;rounded=0;fontSize=11;fontFamily=Helvetica;fontColor=default;" vertex="1" parent="WIyWlLk6GJQsqaUBKTNV-1">
          <mxGeometry x="44" y="665" width="50" height="30" as="geometry" />
        </mxCell>
        <mxCell id="1hs4knqwZ85UVMhzhQ41-17" value="" style="group" vertex="1" connectable="0" parent="WIyWlLk6GJQsqaUBKTNV-1">
          <mxGeometry x="240" y="304" width="100" height="170" as="geometry" />
        </mxCell>
        <mxCell id="1hs4knqwZ85UVMhzhQ41-18" value="" style="rounded=1;whiteSpace=wrap;html=1;fontSize=12;glass=0;strokeWidth=1;shadow=0;container=1;fillColor=#f8cecc;strokeColor=#b85450;" vertex="1" parent="1hs4knqwZ85UVMhzhQ41-17">
          <mxGeometry x="9" y="40" width="100" height="130" as="geometry">
            <mxRectangle y="40" width="50" height="40" as="alternateBounds" />
          </mxGeometry>
        </mxCell>
        <mxCell id="1hs4knqwZ85UVMhzhQ41-25" value="" style="shape=table;startSize=0;container=1;collapsible=0;childLayout=tableLayout;fontSize=16;rounded=1;swimlaneLine=0;fillColor=#f8cecc;strokeColor=#b85450;" vertex="1" parent="1hs4knqwZ85UVMhzhQ41-18">
          <mxGeometry x="22" y="20" width="60" height="92" as="geometry" />
        </mxCell>
        <mxCell id="1hs4knqwZ85UVMhzhQ41-26" value="" style="shape=tableRow;horizontal=0;startSize=0;swimlaneHead=0;swimlaneBody=0;strokeColor=inherit;top=0;left=0;bottom=0;right=0;collapsible=0;dropTarget=0;fillColor=none;points=[[0,0.5],[1,0.5]];portConstraint=eastwest;fontSize=16;" vertex="1" parent="1hs4knqwZ85UVMhzhQ41-25">
          <mxGeometry width="60" height="18" as="geometry" />
        </mxCell>
        <mxCell id="1hs4knqwZ85UVMhzhQ41-27" value="" style="shape=partialRectangle;html=1;whiteSpace=wrap;connectable=0;strokeColor=inherit;overflow=hidden;fillColor=none;top=0;left=0;bottom=0;right=0;pointerEvents=1;fontSize=16;" vertex="1" parent="1hs4knqwZ85UVMhzhQ41-26">
          <mxGeometry width="60" height="18" as="geometry">
            <mxRectangle width="60" height="18" as="alternateBounds" />
          </mxGeometry>
        </mxCell>
        <mxCell id="1hs4knqwZ85UVMhzhQ41-30" value="" style="shape=tableRow;horizontal=0;startSize=0;swimlaneHead=0;swimlaneBody=0;strokeColor=inherit;top=0;left=0;bottom=0;right=0;collapsible=0;dropTarget=0;fillColor=none;points=[[0,0.5],[1,0.5]];portConstraint=eastwest;fontSize=16;" vertex="1" parent="1hs4knqwZ85UVMhzhQ41-25">
          <mxGeometry y="18" width="60" height="20" as="geometry" />
        </mxCell>
        <mxCell id="1hs4knqwZ85UVMhzhQ41-31" value="" style="shape=partialRectangle;html=1;whiteSpace=wrap;connectable=0;strokeColor=inherit;overflow=hidden;fillColor=none;top=0;left=0;bottom=0;right=0;pointerEvents=1;fontSize=16;" vertex="1" parent="1hs4knqwZ85UVMhzhQ41-30">
          <mxGeometry width="60" height="20" as="geometry">
            <mxRectangle width="60" height="20" as="alternateBounds" />
          </mxGeometry>
        </mxCell>
        <mxCell id="1hs4knqwZ85UVMhzhQ41-40" style="shape=tableRow;horizontal=0;startSize=0;swimlaneHead=0;swimlaneBody=0;strokeColor=inherit;top=0;left=0;bottom=0;right=0;collapsible=0;dropTarget=0;fillColor=none;points=[[0,0.5],[1,0.5]];portConstraint=eastwest;fontSize=16;" vertex="1" parent="1hs4knqwZ85UVMhzhQ41-25">
          <mxGeometry y="38" width="60" height="18" as="geometry" />
        </mxCell>
        <mxCell id="1hs4knqwZ85UVMhzhQ41-41" style="shape=partialRectangle;html=1;whiteSpace=wrap;connectable=0;strokeColor=inherit;overflow=hidden;fillColor=none;top=0;left=0;bottom=0;right=0;pointerEvents=1;fontSize=16;" vertex="1" parent="1hs4knqwZ85UVMhzhQ41-40">
          <mxGeometry width="60" height="18" as="geometry">
            <mxRectangle width="60" height="18" as="alternateBounds" />
          </mxGeometry>
        </mxCell>
        <mxCell id="1hs4knqwZ85UVMhzhQ41-38" style="shape=tableRow;horizontal=0;startSize=0;swimlaneHead=0;swimlaneBody=0;strokeColor=inherit;top=0;left=0;bottom=0;right=0;collapsible=0;dropTarget=0;fillColor=none;points=[[0,0.5],[1,0.5]];portConstraint=eastwest;fontSize=16;" vertex="1" parent="1hs4knqwZ85UVMhzhQ41-25">
          <mxGeometry y="56" width="60" height="18" as="geometry" />
        </mxCell>
        <mxCell id="1hs4knqwZ85UVMhzhQ41-39" style="shape=partialRectangle;html=1;whiteSpace=wrap;connectable=0;strokeColor=inherit;overflow=hidden;fillColor=none;top=0;left=0;bottom=0;right=0;pointerEvents=1;fontSize=16;" vertex="1" parent="1hs4knqwZ85UVMhzhQ41-38">
          <mxGeometry width="60" height="18" as="geometry">
            <mxRectangle width="60" height="18" as="alternateBounds" />
          </mxGeometry>
        </mxCell>
        <mxCell id="1hs4knqwZ85UVMhzhQ41-34" value="" style="shape=tableRow;horizontal=0;startSize=0;swimlaneHead=0;swimlaneBody=0;strokeColor=inherit;top=0;left=0;bottom=0;right=0;collapsible=0;dropTarget=0;fillColor=none;points=[[0,0.5],[1,0.5]];portConstraint=eastwest;fontSize=16;" vertex="1" parent="1hs4knqwZ85UVMhzhQ41-25">
          <mxGeometry y="74" width="60" height="18" as="geometry" />
        </mxCell>
        <mxCell id="1hs4knqwZ85UVMhzhQ41-35" value="" style="shape=partialRectangle;html=1;whiteSpace=wrap;connectable=0;strokeColor=inherit;overflow=hidden;fillColor=none;top=0;left=0;bottom=0;right=0;pointerEvents=1;fontSize=16;" vertex="1" parent="1hs4knqwZ85UVMhzhQ41-34">
          <mxGeometry width="60" height="18" as="geometry">
            <mxRectangle width="60" height="18" as="alternateBounds" />
          </mxGeometry>
        </mxCell>
        <mxCell id="1hs4knqwZ85UVMhzhQ41-54" value="" style="group" vertex="1" connectable="0" parent="1hs4knqwZ85UVMhzhQ41-18">
          <mxGeometry x="190" y="-40" width="100" height="170" as="geometry" />
        </mxCell>
        <mxCell id="1hs4knqwZ85UVMhzhQ41-55" value="" style="rounded=1;whiteSpace=wrap;html=1;fontSize=12;glass=0;strokeWidth=1;shadow=0;container=1;fillColor=#f8cecc;strokeColor=#b85450;" vertex="1" parent="1hs4knqwZ85UVMhzhQ41-54">
          <mxGeometry y="40" width="100" height="130" as="geometry" />
        </mxCell>
        <mxCell id="1hs4knqwZ85UVMhzhQ41-56" value="RxD" style="text;html=1;strokeColor=none;fillColor=none;align=left;verticalAlign=middle;whiteSpace=wrap;rounded=0;fontSize=11;fontFamily=Helvetica;fontColor=default;" vertex="1" parent="1hs4knqwZ85UVMhzhQ41-55">
          <mxGeometry y="15" width="50" height="30" as="geometry" />
        </mxCell>
        <mxCell id="1hs4knqwZ85UVMhzhQ41-57" value="Code converter&lt;br&gt;&lt;font color=&quot;#ff0505&quot;&gt;dp_code_ converter&lt;/font&gt;" style="text;html=1;strokeColor=none;fillColor=none;align=center;verticalAlign=middle;whiteSpace=wrap;rounded=0;fontSize=11;fontFamily=Helvetica;fontColor=default;fontStyle=1" vertex="1" parent="1hs4knqwZ85UVMhzhQ41-54">
          <mxGeometry x="-10" width="110" height="30" as="geometry" />
        </mxCell>
        <mxCell id="1hs4knqwZ85UVMhzhQ41-20" value="RAM&lt;br&gt;&lt;font color=&quot;#ff0505&quot;&gt;dp_ram&lt;/font&gt;" style="text;html=1;strokeColor=none;fillColor=none;align=center;verticalAlign=middle;whiteSpace=wrap;rounded=0;fontSize=11;fontFamily=Helvetica;fontColor=default;fontStyle=1" vertex="1" parent="1hs4knqwZ85UVMhzhQ41-17">
          <mxGeometry x="31" width="60" height="30" as="geometry" />
        </mxCell>
        <mxCell id="1hs4knqwZ85UVMhzhQ41-22" value="" style="endArrow=classic;html=1;rounded=0;exitX=1.006;exitY=0.175;exitDx=0;exitDy=0;exitPerimeter=0;strokeWidth=2;" edge="1" parent="WIyWlLk6GJQsqaUBKTNV-1">
          <mxGeometry width="50" height="50" relative="1" as="geometry">
            <mxPoint x="160.5999999999999" y="369.75" as="sourcePoint" />
            <mxPoint x="250" y="370" as="targetPoint" />
          </mxGeometry>
        </mxCell>
        <mxCell id="1hs4knqwZ85UVMhzhQ41-24" value="8" style="edgeLabel;html=1;align=center;verticalAlign=middle;resizable=0;points=[];" vertex="1" connectable="0" parent="1hs4knqwZ85UVMhzhQ41-22">
          <mxGeometry x="0.2332" relative="1" as="geometry">
            <mxPoint as="offset" />
          </mxGeometry>
        </mxCell>
        <mxCell id="1hs4knqwZ85UVMhzhQ41-42" value="" style="endArrow=classic;html=1;rounded=0;entryX=0.5;entryY=0;entryDx=0;entryDy=0;strokeWidth=2;" edge="1" parent="WIyWlLk6GJQsqaUBKTNV-1" target="1hs4knqwZ85UVMhzhQ41-44">
          <mxGeometry width="50" height="50" relative="1" as="geometry">
            <mxPoint x="184" y="370" as="sourcePoint" />
            <mxPoint x="186.07999999999993" y="635.15" as="targetPoint" />
          </mxGeometry>
        </mxCell>
        <mxCell id="1hs4knqwZ85UVMhzhQ41-43" value="8" style="edgeLabel;html=1;align=center;verticalAlign=middle;resizable=0;points=[];" vertex="1" connectable="0" parent="1hs4knqwZ85UVMhzhQ41-42">
          <mxGeometry x="-0.0647" relative="1" as="geometry">
            <mxPoint as="offset" />
          </mxGeometry>
        </mxCell>
        <mxCell id="1hs4knqwZ85UVMhzhQ41-44" value="ASCII_R" style="text;html=1;strokeColor=none;fillColor=none;align=left;verticalAlign=middle;whiteSpace=wrap;rounded=0;fontSize=11;fontFamily=Helvetica;fontColor=default;" vertex="1" parent="WIyWlLk6GJQsqaUBKTNV-1">
          <mxGeometry x="160" y="640" width="50" height="30" as="geometry" />
        </mxCell>
        <mxCell id="1hs4knqwZ85UVMhzhQ41-45" value="address counter&lt;span style=&quot;font-weight: 400;&quot;&gt;&lt;br&gt;&lt;/span&gt;&lt;font color=&quot;#ff0505&quot;&gt;dp_addr_cnt&lt;/font&gt;" style="text;html=1;strokeColor=none;fillColor=none;align=left;verticalAlign=middle;whiteSpace=wrap;rounded=0;fontSize=11;fontFamily=Helvetica;fontColor=default;fontStyle=1" vertex="1" parent="WIyWlLk6GJQsqaUBKTNV-1">
          <mxGeometry x="210" y="484" width="90" height="45" as="geometry" />
        </mxCell>
        <mxCell id="1hs4knqwZ85UVMhzhQ41-46" value="&lt;font color=&quot;#0000ff&quot;&gt;A&lt;/font&gt;" style="rounded=1;whiteSpace=wrap;html=1;fontSize=12;glass=0;strokeWidth=1;shadow=0;container=1;fontStyle=1;fillColor=#d5e8d4;strokeColor=#82b366;" vertex="1" parent="WIyWlLk6GJQsqaUBKTNV-1">
          <mxGeometry x="220" y="525" width="70" height="70" as="geometry">
            <mxRectangle x="-60" y="550" width="50" height="40" as="alternateBounds" />
          </mxGeometry>
        </mxCell>
        <mxCell id="1hs4knqwZ85UVMhzhQ41-47" value="" style="curved=1;endArrow=classic;html=1;rounded=0;entryX=0.615;entryY=1.001;entryDx=0;entryDy=0;entryPerimeter=0;" edge="1" parent="WIyWlLk6GJQsqaUBKTNV-1" target="1hs4knqwZ85UVMhzhQ41-18">
          <mxGeometry width="50" height="50" relative="1" as="geometry">
            <mxPoint x="290" y="549" as="sourcePoint" />
            <mxPoint x="310" y="480" as="targetPoint" />
            <Array as="points">
              <mxPoint x="320" y="549" />
            </Array>
          </mxGeometry>
        </mxCell>
        <mxCell id="1hs4knqwZ85UVMhzhQ41-53" value="8&lt;br&gt;address" style="edgeLabel;html=1;align=center;verticalAlign=middle;resizable=0;points=[];" vertex="1" connectable="0" parent="1hs4knqwZ85UVMhzhQ41-47">
          <mxGeometry x="0.4261" y="1" relative="1" as="geometry">
            <mxPoint x="-3" y="16" as="offset" />
          </mxGeometry>
        </mxCell>
        <mxCell id="1hs4knqwZ85UVMhzhQ41-48" value="" style="endArrow=classic;html=1;rounded=0;entryX=0.5;entryY=1;entryDx=0;entryDy=0;exitX=0.5;exitY=0;exitDx=0;exitDy=0;" edge="1" parent="WIyWlLk6GJQsqaUBKTNV-1" source="1hs4knqwZ85UVMhzhQ41-50" target="1hs4knqwZ85UVMhzhQ41-46">
          <mxGeometry width="50" height="50" relative="1" as="geometry">
            <mxPoint x="320" y="620" as="sourcePoint" />
            <mxPoint x="254.7100000000001" y="640" as="targetPoint" />
          </mxGeometry>
        </mxCell>
        <mxCell id="1hs4knqwZ85UVMhzhQ41-49" value="2" style="edgeLabel;html=1;align=center;verticalAlign=middle;resizable=0;points=[];" vertex="1" connectable="0" parent="1hs4knqwZ85UVMhzhQ41-48">
          <mxGeometry x="-0.0314" relative="1" as="geometry">
            <mxPoint as="offset" />
          </mxGeometry>
        </mxCell>
        <mxCell id="1hs4knqwZ85UVMhzhQ41-50" value="clr_A&lt;br&gt;inc_A" style="text;html=1;strokeColor=none;fillColor=none;align=left;verticalAlign=middle;whiteSpace=wrap;rounded=0;fontSize=11;fontFamily=Helvetica;fontColor=default;" vertex="1" parent="WIyWlLk6GJQsqaUBKTNV-1">
          <mxGeometry x="230" y="640" width="50" height="30" as="geometry" />
        </mxCell>
        <mxCell id="1hs4knqwZ85UVMhzhQ41-58" value="" style="endArrow=classic;html=1;rounded=0;entryX=-0.071;entryY=0.382;entryDx=0;entryDy=0;strokeWidth=2;entryPerimeter=0;" edge="1" parent="WIyWlLk6GJQsqaUBKTNV-1" target="1hs4knqwZ85UVMhzhQ41-56">
          <mxGeometry width="50" height="50" relative="1" as="geometry">
            <mxPoint x="350" y="370" as="sourcePoint" />
            <mxPoint x="419.4" y="370" as="targetPoint" />
          </mxGeometry>
        </mxCell>
        <mxCell id="1hs4knqwZ85UVMhzhQ41-59" value="8" style="edgeLabel;html=1;align=center;verticalAlign=middle;resizable=0;points=[];" vertex="1" connectable="0" parent="1hs4knqwZ85UVMhzhQ41-58">
          <mxGeometry x="0.2332" relative="1" as="geometry">
            <mxPoint x="-10" as="offset" />
          </mxGeometry>
        </mxCell>
        <mxCell id="1hs4knqwZ85UVMhzhQ41-60" value="data in" style="text;html=1;strokeColor=none;fillColor=none;align=left;verticalAlign=middle;whiteSpace=wrap;rounded=0;fontSize=11;fontFamily=Helvetica;fontColor=default;" vertex="1" parent="WIyWlLk6GJQsqaUBKTNV-1">
          <mxGeometry x="170" y="340" width="50" height="30" as="geometry" />
        </mxCell>
        <mxCell id="1hs4knqwZ85UVMhzhQ41-61" value="td_done" style="text;html=1;strokeColor=none;fillColor=none;align=left;verticalAlign=middle;whiteSpace=wrap;rounded=0;fontSize=11;fontFamily=Helvetica;fontColor=default;" vertex="1" parent="WIyWlLk6GJQsqaUBKTNV-1">
          <mxGeometry x="510" y="645" width="50" height="20" as="geometry" />
        </mxCell>
        <mxCell id="1hs4knqwZ85UVMhzhQ41-62" value="" style="group;fontStyle=1;" vertex="1" connectable="0" parent="WIyWlLk6GJQsqaUBKTNV-1">
          <mxGeometry x="610" y="300" width="100" height="170" as="geometry" />
        </mxCell>
        <mxCell id="1hs4knqwZ85UVMhzhQ41-63" value="&lt;b&gt;&lt;font color=&quot;#0000ff&quot;&gt;B&lt;/font&gt;&lt;/b&gt;" style="rounded=1;whiteSpace=wrap;html=1;fontSize=12;glass=0;strokeWidth=1;shadow=0;container=1;fillColor=#d5e8d4;strokeColor=#82b366;" vertex="1" parent="1hs4knqwZ85UVMhzhQ41-62">
          <mxGeometry y="40" width="100" height="130" as="geometry" />
        </mxCell>
        <mxCell id="1hs4knqwZ85UVMhzhQ41-65" value="Mod m counter&lt;br&gt;&lt;font color=&quot;#ff0505&quot;&gt;dp_mod_m_t_ff&lt;/font&gt;" style="text;html=1;strokeColor=none;fillColor=none;align=center;verticalAlign=middle;whiteSpace=wrap;rounded=0;fontSize=11;fontFamily=Helvetica;fontColor=default;fontStyle=1" vertex="1" parent="1hs4knqwZ85UVMhzhQ41-62">
          <mxGeometry x="-10" width="110" height="30" as="geometry" />
        </mxCell>
        <mxCell id="1hs4knqwZ85UVMhzhQ41-66" value="" style="endArrow=classic;html=1;rounded=0;exitX=1.006;exitY=0.175;exitDx=0;exitDy=0;exitPerimeter=0;strokeWidth=2;" edge="1" parent="1hs4knqwZ85UVMhzhQ41-62">
          <mxGeometry width="50" height="50" relative="1" as="geometry">
            <mxPoint x="-70.00000000000011" y="70.25" as="sourcePoint" />
            <mxPoint y="70" as="targetPoint" />
          </mxGeometry>
        </mxCell>
        <mxCell id="1hs4knqwZ85UVMhzhQ41-67" value="18" style="edgeLabel;html=1;align=center;verticalAlign=middle;resizable=0;points=[];" vertex="1" connectable="0" parent="1hs4knqwZ85UVMhzhQ41-66">
          <mxGeometry x="0.2332" relative="1" as="geometry">
            <mxPoint x="-12" as="offset" />
          </mxGeometry>
        </mxCell>
        <mxCell id="1hs4knqwZ85UVMhzhQ41-104" value="mcnt_in" style="text;html=1;strokeColor=none;fillColor=none;align=left;verticalAlign=middle;whiteSpace=wrap;rounded=0;fontSize=11;fontFamily=Helvetica;fontColor=default;" vertex="1" parent="1hs4knqwZ85UVMhzhQ41-62">
          <mxGeometry y="60" width="50" height="20" as="geometry" />
        </mxCell>
        <mxCell id="1hs4knqwZ85UVMhzhQ41-68" value="T FF&lt;span style=&quot;font-weight: normal;&quot;&gt;&lt;br&gt;&lt;/span&gt;&lt;font color=&quot;#ff0505&quot;&gt;dp_tffen&lt;/font&gt;" style="text;html=1;strokeColor=none;fillColor=none;align=center;verticalAlign=middle;whiteSpace=wrap;rounded=0;fontSize=11;fontFamily=Helvetica;fontColor=default;fontStyle=1" vertex="1" parent="WIyWlLk6GJQsqaUBKTNV-1">
          <mxGeometry x="740" y="295" width="110" height="45" as="geometry" />
        </mxCell>
        <mxCell id="1hs4knqwZ85UVMhzhQ41-69" value="&lt;b&gt;T&lt;br&gt;FF&lt;/b&gt;" style="rounded=1;whiteSpace=wrap;html=1;fontSize=12;glass=0;strokeWidth=1;shadow=0;container=1;align=center;fillColor=#f8cecc;strokeColor=#b85450;verticalAlign=bottom;" vertex="1" parent="WIyWlLk6GJQsqaUBKTNV-1">
          <mxGeometry x="760" y="345" width="70" height="70" as="geometry">
            <mxRectangle x="-60" y="550" width="50" height="40" as="alternateBounds" />
          </mxGeometry>
        </mxCell>
        <mxCell id="1hs4knqwZ85UVMhzhQ41-70" value="" style="endArrow=classic;html=1;rounded=0;entryX=0.57;entryY=0.997;entryDx=0;entryDy=0;entryPerimeter=0;" edge="1" parent="WIyWlLk6GJQsqaUBKTNV-1" target="1hs4knqwZ85UVMhzhQ41-69">
          <mxGeometry width="50" height="50" relative="1" as="geometry">
            <mxPoint x="800" y="640" as="sourcePoint" />
            <mxPoint x="690" y="400" as="targetPoint" />
          </mxGeometry>
        </mxCell>
        <mxCell id="1hs4knqwZ85UVMhzhQ41-71" value="1" style="edgeLabel;html=1;align=center;verticalAlign=middle;resizable=0;points=[];" vertex="1" connectable="0" parent="1hs4knqwZ85UVMhzhQ41-70">
          <mxGeometry x="-0.199" y="-1" relative="1" as="geometry">
            <mxPoint as="offset" />
          </mxGeometry>
        </mxCell>
        <mxCell id="1hs4knqwZ85UVMhzhQ41-72" value="clr FF" style="text;html=1;strokeColor=none;fillColor=none;align=left;verticalAlign=middle;whiteSpace=wrap;rounded=0;fontSize=11;fontFamily=Helvetica;fontColor=default;" vertex="1" parent="WIyWlLk6GJQsqaUBKTNV-1">
          <mxGeometry x="776" y="640" width="50" height="30" as="geometry" />
        </mxCell>
        <mxCell id="1hs4knqwZ85UVMhzhQ41-74" value="" style="endArrow=classic;html=1;rounded=0;exitX=1.009;exitY=0.215;exitDx=0;exitDy=0;exitPerimeter=0;entryX=-0.001;entryY=0.335;entryDx=0;entryDy=0;entryPerimeter=0;" edge="1" parent="WIyWlLk6GJQsqaUBKTNV-1" source="1hs4knqwZ85UVMhzhQ41-63" target="1hs4knqwZ85UVMhzhQ41-69">
          <mxGeometry width="50" height="50" relative="1" as="geometry">
            <mxPoint x="710" y="380" as="sourcePoint" />
            <mxPoint x="760" y="330" as="targetPoint" />
          </mxGeometry>
        </mxCell>
        <mxCell id="1hs4knqwZ85UVMhzhQ41-75" value="1" style="edgeLabel;html=1;align=center;verticalAlign=middle;resizable=0;points=[];" vertex="1" connectable="0" parent="1hs4knqwZ85UVMhzhQ41-74">
          <mxGeometry x="-0.1081" y="1" relative="1" as="geometry">
            <mxPoint as="offset" />
          </mxGeometry>
        </mxCell>
        <mxCell id="1hs4knqwZ85UVMhzhQ41-76" value="0.5 sec timer&lt;br&gt;&lt;font color=&quot;#ff0505&quot;&gt;dp_mod_m_timer&lt;/font&gt;" style="text;html=1;strokeColor=none;fillColor=none;align=center;verticalAlign=middle;whiteSpace=wrap;rounded=0;fontSize=11;fontFamily=Helvetica;fontColor=default;fontStyle=1" vertex="1" parent="WIyWlLk6GJQsqaUBKTNV-1">
          <mxGeometry x="450" y="481" width="110" height="45" as="geometry" />
        </mxCell>
        <mxCell id="1hs4knqwZ85UVMhzhQ41-77" value="" style="rounded=1;whiteSpace=wrap;html=1;fontSize=12;glass=0;strokeWidth=1;shadow=0;container=1;fillColor=#d5e8d4;strokeColor=#82b366;" vertex="1" parent="WIyWlLk6GJQsqaUBKTNV-1">
          <mxGeometry x="470" y="520" width="70" height="70" as="geometry">
            <mxRectangle x="-60" y="550" width="50" height="40" as="alternateBounds" />
          </mxGeometry>
        </mxCell>
        <mxCell id="1hs4knqwZ85UVMhzhQ41-78" value="" style="endArrow=classic;html=1;rounded=0;exitX=0.505;exitY=0;exitDx=0;exitDy=0;exitPerimeter=0;entryX=0.197;entryY=1.01;entryDx=0;entryDy=0;entryPerimeter=0;" edge="1" parent="WIyWlLk6GJQsqaUBKTNV-1">
          <mxGeometry width="50" height="50" relative="1" as="geometry">
            <mxPoint x="494.4000000000001" y="640" as="sourcePoint" />
            <mxPoint x="493.7900000000002" y="590.7" as="targetPoint" />
          </mxGeometry>
        </mxCell>
        <mxCell id="1hs4knqwZ85UVMhzhQ41-80" value="1" style="edgeLabel;html=1;align=center;verticalAlign=middle;resizable=0;points=[];" vertex="1" connectable="0" parent="1hs4knqwZ85UVMhzhQ41-78">
          <mxGeometry x="-0.0496" y="-1" relative="1" as="geometry">
            <mxPoint y="-3" as="offset" />
          </mxGeometry>
        </mxCell>
        <mxCell id="1hs4knqwZ85UVMhzhQ41-79" value="" style="endArrow=classic;html=1;rounded=0;exitX=0.654;exitY=1.006;exitDx=0;exitDy=0;exitPerimeter=0;entryX=0.541;entryY=-0.002;entryDx=0;entryDy=0;entryPerimeter=0;" edge="1" parent="WIyWlLk6GJQsqaUBKTNV-1" source="1hs4knqwZ85UVMhzhQ41-77" target="WIyWlLk6GJQsqaUBKTNV-3">
          <mxGeometry width="50" height="50" relative="1" as="geometry">
            <mxPoint x="490" y="560" as="sourcePoint" />
            <mxPoint x="540" y="510" as="targetPoint" />
          </mxGeometry>
        </mxCell>
        <mxCell id="1hs4knqwZ85UVMhzhQ41-81" value="1" style="edgeLabel;html=1;align=center;verticalAlign=middle;resizable=0;points=[];" vertex="1" connectable="0" parent="1hs4knqwZ85UVMhzhQ41-79">
          <mxGeometry x="-0.3123" y="1" relative="1" as="geometry">
            <mxPoint y="7" as="offset" />
          </mxGeometry>
        </mxCell>
        <mxCell id="1hs4knqwZ85UVMhzhQ41-82" value="data out" style="text;html=1;strokeColor=none;fillColor=none;align=left;verticalAlign=middle;whiteSpace=wrap;rounded=0;fontSize=11;fontFamily=Helvetica;fontColor=default;" vertex="1" parent="WIyWlLk6GJQsqaUBKTNV-1">
          <mxGeometry x="374" y="355" width="50" height="20" as="geometry" />
        </mxCell>
        <mxCell id="1hs4knqwZ85UVMhzhQ41-83" value="td_on" style="text;html=1;strokeColor=none;fillColor=none;align=left;verticalAlign=middle;whiteSpace=wrap;rounded=0;fontSize=11;fontFamily=Helvetica;fontColor=default;" vertex="1" parent="WIyWlLk6GJQsqaUBKTNV-1">
          <mxGeometry x="470" y="645" width="50" height="20" as="geometry" />
        </mxCell>
        <mxCell id="1hs4knqwZ85UVMhzhQ41-84" value="" style="endArrow=classic;html=1;rounded=0;entryX=0.842;entryY=1.002;entryDx=0;entryDy=0;entryPerimeter=0;" edge="1" parent="WIyWlLk6GJQsqaUBKTNV-1" target="1hs4knqwZ85UVMhzhQ41-18">
          <mxGeometry width="50" height="50" relative="1" as="geometry">
            <mxPoint x="333" y="640" as="sourcePoint" />
            <mxPoint x="380" y="590" as="targetPoint" />
          </mxGeometry>
        </mxCell>
        <mxCell id="1hs4knqwZ85UVMhzhQ41-85" value="1" style="edgeLabel;html=1;align=center;verticalAlign=middle;resizable=0;points=[];" vertex="1" connectable="0" parent="1hs4knqwZ85UVMhzhQ41-84">
          <mxGeometry x="-0.3466" y="-1" relative="1" as="geometry">
            <mxPoint as="offset" />
          </mxGeometry>
        </mxCell>
        <mxCell id="1hs4knqwZ85UVMhzhQ41-86" value="wr" style="text;html=1;strokeColor=none;fillColor=none;align=left;verticalAlign=middle;whiteSpace=wrap;rounded=0;fontSize=11;fontFamily=Helvetica;fontColor=default;" vertex="1" parent="WIyWlLk6GJQsqaUBKTNV-1">
          <mxGeometry x="324" y="635" width="26" height="30" as="geometry" />
        </mxCell>
        <mxCell id="1hs4knqwZ85UVMhzhQ41-88" value="" style="verticalLabelPosition=middle;verticalAlign=middle;html=1;shape=trapezoid;perimeter=trapezoidPerimeter;whiteSpace=wrap;size=0.23;arcSize=10;flipV=1;labelPosition=center;align=center;rotation=91;fillColor=#dae8fc;strokeColor=#6c8ebf;" vertex="1" parent="WIyWlLk6GJQsqaUBKTNV-1">
          <mxGeometry x="850" y="336" width="100" height="60" as="geometry" />
        </mxCell>
        <mxCell id="1hs4knqwZ85UVMhzhQ41-89" value="" style="endArrow=classic;html=1;rounded=0;exitX=1;exitY=0.25;exitDx=0;exitDy=0;" edge="1" parent="WIyWlLk6GJQsqaUBKTNV-1">
          <mxGeometry width="50" height="50" relative="1" as="geometry">
            <mxPoint x="830" y="365.5" as="sourcePoint" />
            <mxPoint x="870" y="366" as="targetPoint" />
          </mxGeometry>
        </mxCell>
        <mxCell id="1hs4knqwZ85UVMhzhQ41-91" value="1" style="edgeLabel;html=1;align=center;verticalAlign=middle;resizable=0;points=[];" vertex="1" connectable="0" parent="1hs4knqwZ85UVMhzhQ41-89">
          <mxGeometry x="-0.2715" relative="1" as="geometry">
            <mxPoint as="offset" />
          </mxGeometry>
        </mxCell>
        <mxCell id="1hs4knqwZ85UVMhzhQ41-90" value="Speaker" style="text;html=1;strokeColor=none;fillColor=none;align=left;verticalAlign=middle;whiteSpace=wrap;rounded=0;fontSize=11;fontFamily=Helvetica;fontColor=default;" vertex="1" parent="WIyWlLk6GJQsqaUBKTNV-1">
          <mxGeometry x="880" y="353" width="50" height="20" as="geometry" />
        </mxCell>
        <mxCell id="1hs4knqwZ85UVMhzhQ41-93" value="FSMD - Piano / music box" style="text;html=1;strokeColor=none;fillColor=none;align=left;verticalAlign=middle;whiteSpace=wrap;rounded=0;fontSize=40;fontFamily=Helvetica;fontColor=default;fontStyle=1" vertex="1" parent="WIyWlLk6GJQsqaUBKTNV-1">
          <mxGeometry x="60" y="170" width="580" height="90" as="geometry" />
        </mxCell>
        <mxCell id="1hs4knqwZ85UVMhzhQ41-94" value="S0" style="rounded=1;whiteSpace=wrap;html=1;fontFamily=Helvetica;fontSize=11;fontColor=#FF0505;fillColor=#FFF2CC;strokeWidth=0;align=left;verticalAlign=top;fontStyle=1" vertex="1" parent="WIyWlLk6GJQsqaUBKTNV-1">
          <mxGeometry x="1130" y="450" width="170" height="190" as="geometry" />
        </mxCell>
        <mxCell id="1hs4knqwZ85UVMhzhQ41-95" style="edgeStyle=orthogonalEdgeStyle;shape=connector;curved=0;rounded=1;orthogonalLoop=1;jettySize=auto;html=1;exitX=0.5;exitY=1;exitDx=0;exitDy=0;entryX=0.5;entryY=0;entryDx=0;entryDy=0;labelBackgroundColor=default;strokeColor=default;align=center;verticalAlign=middle;fontFamily=Helvetica;fontSize=11;fontColor=default;endArrow=block;endFill=1;" edge="1" parent="WIyWlLk6GJQsqaUBKTNV-1" source="1hs4knqwZ85UVMhzhQ41-96" target="1hs4knqwZ85UVMhzhQ41-99">
          <mxGeometry relative="1" as="geometry" />
        </mxCell>
        <mxCell id="1hs4knqwZ85UVMhzhQ41-96" value="" style="rounded=0;whiteSpace=wrap;html=1;fontFamily=Helvetica;fontSize=11;fontColor=default;" vertex="1" parent="WIyWlLk6GJQsqaUBKTNV-1">
          <mxGeometry x="1180" y="470" width="80" height="30" as="geometry" />
        </mxCell>
        <mxCell id="1hs4knqwZ85UVMhzhQ41-97" value="ascii_r = dig3?" style="shape=hexagon;perimeter=hexagonPerimeter2;whiteSpace=wrap;html=1;fixedSize=1;fontFamily=Helvetica;fontSize=11;fontColor=default;" vertex="1" parent="WIyWlLk6GJQsqaUBKTNV-1">
          <mxGeometry x="1160" y="585" width="120" height="30" as="geometry" />
        </mxCell>
        <mxCell id="1hs4knqwZ85UVMhzhQ41-98" style="edgeStyle=orthogonalEdgeStyle;shape=connector;curved=0;rounded=1;orthogonalLoop=1;jettySize=auto;html=1;exitX=0.5;exitY=1;exitDx=0;exitDy=0;entryX=0.5;entryY=0;entryDx=0;entryDy=0;labelBackgroundColor=default;strokeColor=default;align=center;verticalAlign=middle;fontFamily=Helvetica;fontSize=11;fontColor=default;endArrow=block;endFill=1;" edge="1" parent="WIyWlLk6GJQsqaUBKTNV-1" source="1hs4knqwZ85UVMhzhQ41-99" target="1hs4knqwZ85UVMhzhQ41-97">
          <mxGeometry relative="1" as="geometry" />
        </mxCell>
        <mxCell id="1hs4knqwZ85UVMhzhQ41-99" value="rx_done_tick = &#39;1&#39;?" style="shape=hexagon;perimeter=hexagonPerimeter2;whiteSpace=wrap;html=1;fixedSize=1;fontFamily=Helvetica;fontSize=11;fontColor=default;" vertex="1" parent="WIyWlLk6GJQsqaUBKTNV-1">
          <mxGeometry x="1160" y="530" width="120" height="30" as="geometry" />
        </mxCell>
        <mxCell id="1hs4knqwZ85UVMhzhQ41-100" value="F" style="text;html=1;strokeColor=none;fillColor=none;align=left;verticalAlign=middle;whiteSpace=wrap;rounded=0;fontSize=11;fontFamily=Helvetica;fontColor=default;" vertex="1" parent="WIyWlLk6GJQsqaUBKTNV-1">
          <mxGeometry x="1146" y="519" width="16" height="30" as="geometry" />
        </mxCell>
        <mxCell id="1hs4knqwZ85UVMhzhQ41-101" value="F" style="text;html=1;strokeColor=none;fillColor=none;align=left;verticalAlign=middle;whiteSpace=wrap;rounded=0;fontSize=11;fontFamily=Helvetica;fontColor=default;" vertex="1" parent="WIyWlLk6GJQsqaUBKTNV-1">
          <mxGeometry x="1146" y="570" width="16" height="30" as="geometry" />
        </mxCell>
        <mxCell id="1hs4knqwZ85UVMhzhQ41-102" value="T" style="text;html=1;strokeColor=none;fillColor=none;align=left;verticalAlign=middle;whiteSpace=wrap;rounded=0;fontSize=11;fontFamily=Helvetica;fontColor=default;" vertex="1" parent="WIyWlLk6GJQsqaUBKTNV-1">
          <mxGeometry x="1228" y="556" width="16" height="30" as="geometry" />
        </mxCell>
        <mxCell id="1hs4knqwZ85UVMhzhQ41-103" value="T" style="text;html=1;strokeColor=none;fillColor=none;align=left;verticalAlign=middle;whiteSpace=wrap;rounded=0;fontSize=11;fontFamily=Helvetica;fontColor=default;" vertex="1" parent="WIyWlLk6GJQsqaUBKTNV-1">
          <mxGeometry x="1228" y="615" width="16" height="30" as="geometry" />
        </mxCell>
        <mxCell id="1hs4knqwZ85UVMhzhQ41-105" value="zero_tick" style="text;html=1;strokeColor=none;fillColor=none;align=right;verticalAlign=middle;whiteSpace=wrap;rounded=0;fontSize=11;fontFamily=Helvetica;fontColor=default;" vertex="1" parent="WIyWlLk6GJQsqaUBKTNV-1">
          <mxGeometry x="659" y="359" width="50" height="20" as="geometry" />
        </mxCell>
        <mxCell id="1hs4knqwZ85UVMhzhQ41-106" value="" style="endArrow=classic;html=1;rounded=0;" edge="1" parent="WIyWlLk6GJQsqaUBKTNV-1">
          <mxGeometry width="50" height="50" relative="1" as="geometry">
            <mxPoint x="630" y="490" as="sourcePoint" />
            <mxPoint x="630" y="469" as="targetPoint" />
          </mxGeometry>
        </mxCell>
        <mxCell id="1hs4knqwZ85UVMhzhQ41-107" value="clk" style="text;html=1;strokeColor=none;fillColor=none;align=center;verticalAlign=middle;whiteSpace=wrap;rounded=0;fontSize=11;fontFamily=Helvetica;fontColor=default;" vertex="1" parent="WIyWlLk6GJQsqaUBKTNV-1">
          <mxGeometry x="605" y="488" width="50" height="20" as="geometry" />
        </mxCell>
        <mxCell id="1hs4knqwZ85UVMhzhQ41-108" value="zero_tick" style="text;html=1;strokeColor=none;fillColor=none;align=right;verticalAlign=middle;whiteSpace=wrap;rounded=0;fontSize=11;fontFamily=Helvetica;fontColor=default;" vertex="1" parent="WIyWlLk6GJQsqaUBKTNV-1">
          <mxGeometry x="768" y="360" width="42" height="20" as="geometry" />
        </mxCell>
        <mxCell id="1hs4knqwZ85UVMhzhQ41-109" value="r_reg" style="text;html=1;strokeColor=none;fillColor=none;align=center;verticalAlign=middle;whiteSpace=wrap;rounded=0;fontSize=11;fontFamily=Helvetica;fontColor=default;" vertex="1" parent="WIyWlLk6GJQsqaUBKTNV-1">
          <mxGeometry x="825" y="345" width="50" height="20" as="geometry" />
        </mxCell>
      </root>
    </mxGraphModel>
  </diagram>
</mxfile>
